Coordinates
nRows=127
nColumns=2
inDegrees=yes
endheader
time	ankle_angle_r	
2.79133	 -5.163650	
2.8629	 -5.279541	
2.93448	 -5.233765	
3.00605	 -5.226463	
3.07762	 -5.187988	
3.14919	 -5.234773	
3.22077	 -5.122678	
3.29234	 -5.203247	
3.36391	 -5.168039	
3.43548	 -5.136751	
3.50706	 -5.213399	
3.57863	 -5.107065	
3.6502	 -5.140902	
3.72177	 -5.233765	
3.79335	 -5.111694	
3.86492	 -5.178876	
3.93649	 -5.109145	
4.00806	 -5.283971	
4.07964	 -5.218506	
4.15121	 -5.079876	
4.22278	 -5.179916	
4.29435	 -5.150076	
4.36593	 -5.195591	
4.4375	 -5.210695	
4.50907	 -5.157471	
4.58065	 -5.240797	
4.65222	 -5.181165	
4.72379	 -5.255639	
4.79536	 -5.179137	
4.86694	 -5.224706	
4.93851	 -5.181997	
5.01008	 -5.084868	
5.08165	 -5.157471	
5.15323	 -5.187988	
5.2248	 -5.228605	
5.29637	 -5.091484	
5.36794	 -5.096436	
5.43952	 -5.168194	
5.51109	 -5.137885	
5.58266	 -5.249023	
5.65423	 -5.142212	
5.72581	 -5.279541	
5.79738	 -5.267777	
5.86895	 -5.233765	
5.94052	 -5.255182	
6.0121	 -5.264282	
6.08367	 -5.279541	
6.15524	 -5.249023	
6.22681	 -5.203247	
6.29839	 -5.246984	
6.36996	 -5.206909	
6.44153	 -5.305189	
6.5131	 -5.095020	
6.58468	 -5.112901	
6.65625	 -5.173728	
6.72782	 -5.110903	
6.7994	 -5.067084	
6.87097	 -5.111694	
6.94254	 -5.172729	
7.01411	 -5.157512	
7.08569	 -5.157471	
7.15726	 -5.233307	
7.22883	 -5.279541	
7.3004	 -5.279541	
7.37198	 -5.216343	
7.44355	 -5.247734	
7.51512	 -5.293303	
7.58669	 -5.279541	
7.65827	 -5.292887	
7.72984	 -5.231643	
7.80141	 -5.279541	
7.87298	 -5.254098	
7.94456	 -5.221251	
8.01613	 -5.215552	
8.0877	 -5.215344	
8.15927	 -5.069287	
8.23085	 -5.111694	
8.30242	 -5.065918	
8.37399	 -5.077183	
8.44556	 -5.161672	
8.51714	 -5.218506	
8.58871	 -5.183371	
8.66028	 -5.273933	
8.73185	 -5.294800	
8.80343	 -5.213264	
8.875	 -5.264282	
8.94657	 -5.273883	
9.01815	 -5.294800	
9.08972	 -5.249023	
9.16129	 -5.260696	
9.23286	 -5.279541	
9.30444	 -5.242326	
9.37601	 -5.226859	
9.44758	 -5.172729	
9.51915	 -5.187988	
9.59073	 -5.172729	
9.6623	 -5.142212	
9.73387	 -5.226452	
9.80544	 -5.126953	
9.87702	 -5.113159	
9.94859	 -5.083058	
10.0202	 -5.052956	
10.0917	 -5.172729	
10.1633	 -5.166665	
10.2349	 -5.166873	
10.3065	 -5.193637	
10.378	 -5.275164	
10.4496	 -5.290007	
10.5212	 -5.223715	
10.5927	 -5.305242	
10.6643	 -5.249023	
10.7359	 -5.198846	
10.8075	 -5.271156	
10.879	 -5.096436	
10.9506	 -5.187988	
11.0222	 -5.240902	
11.0937	 -5.157471	
11.1653	 -5.218506	
11.2369	 -5.212080	
11.3085	 -5.249023	
11.38	 -5.096436	
11.4516	 -5.142212	
11.5232	 -5.170617	
11.5948	 -5.207056	
11.6663	 -5.245631	
11.7379	 -5.052147	
11.8095	 -5.082457	
